<mxfile host="app.diagrams.net" agent="Mozilla/5.0 (Macintosh; Intel Mac OS X 10_15_7) AppleWebKit/537.36 (KHTML, like Gecko) Chrome/134.0.0.0 Safari/537.36" version="26.1.3">
  <diagram name="SmartTax Icon Architecture" id="icon_architecture">
    <mxGraphModel dx="468" dy="983" grid="1" gridSize="10" guides="1" tooltips="1" connect="1" arrows="1" fold="1" page="1" pageScale="1" pageWidth="1000" pageHeight="700" math="0" shadow="0">
      <root>
        <mxCell id="0" />
        <mxCell id="1" parent="0" />
        <mxCell id="gqfAAeyBDF066Aqk3Bnu-213" value="" style="rounded=0;whiteSpace=wrap;html=1;" vertex="1" parent="1">
          <mxGeometry x="1000" width="1000" height="700" as="geometry" />
        </mxCell>
        <mxCell id="gqfAAeyBDF066Aqk3Bnu-206" value="Availability zone" style="sketch=0;outlineConnect=0;gradientColor=none;html=1;whiteSpace=wrap;fontSize=12;fontStyle=0;shape=mxgraph.aws4.group;grIcon=mxgraph.aws4.group_availability_zone;strokeColor=#545B64;fillColor=none;verticalAlign=top;align=left;spacingLeft=30;fontColor=#545B64;dashed=1;" vertex="1" parent="1">
          <mxGeometry x="1192" y="130" width="770" height="520" as="geometry" />
        </mxCell>
        <mxCell id="gqfAAeyBDF066Aqk3Bnu-154" value="aws-cloud" style="points=[[0,0],[0.25,0],[0.5,0],[0.75,0],[1,0],[1,0.25],[1,0.5],[1,0.75],[1,1],[0.75,1],[0.5,1],[0.25,1],[0,1],[0,0.75],[0,0.5],[0,0.25]];outlineConnect=0;gradientColor=none;html=1;whiteSpace=wrap;fontSize=12;fontStyle=0;container=1;pointerEvents=0;collapsible=0;recursiveResize=0;shape=mxgraph.aws4.group;grIcon=mxgraph.aws4.group_region;strokeColor=#00A4A6;fillColor=none;verticalAlign=top;align=left;spacingLeft=30;fontColor=#147EBA;dashed=1;" vertex="1" parent="1">
          <mxGeometry x="1172" y="81" width="810" height="599" as="geometry" />
        </mxCell>
        <mxCell id="gqfAAeyBDF066Aqk3Bnu-155" value="SmartTax Agent - Enterprise Architecture" style="text;html=1;strokeColor=none;fillColor=none;align=center;verticalAlign=top;fontStyle=1;fontSize=15;" vertex="1" parent="1">
          <mxGeometry x="1502" y="8" width="100" height="30" as="geometry" />
        </mxCell>
        <mxCell id="gqfAAeyBDF066Aqk3Bnu-156" value="VPC" style="points=[[0,0],[0.25,0],[0.5,0],[0.75,0],[1,0],[1,0.25],[1,0.5],[1,0.75],[1,1],[0.75,1],[0.5,1],[0.25,1],[0,1],[0,0.75],[0,0.5],[0,0.25]];outlineConnect=0;gradientColor=none;html=1;whiteSpace=wrap;fontSize=12;fontStyle=0;container=1;pointerEvents=0;collapsible=0;recursiveResize=0;shape=mxgraph.aws4.group;grIcon=mxgraph.aws4.group_vpc2;strokeColor=#8C4FFF;fillColor=none;verticalAlign=top;align=left;spacingLeft=30;fontColor=#AAB7B8;dashed=0;" vertex="1" parent="1">
          <mxGeometry x="1182" y="110" width="790" height="550" as="geometry" />
        </mxCell>
        <mxCell id="gqfAAeyBDF066Aqk3Bnu-157" value="Public subnet" style="points=[[0,0],[0.25,0],[0.5,0],[0.75,0],[1,0],[1,0.25],[1,0.5],[1,0.75],[1,1],[0.75,1],[0.5,1],[0.25,1],[0,1],[0,0.75],[0,0.5],[0,0.25]];outlineConnect=0;gradientColor=none;html=1;whiteSpace=wrap;fontSize=12;fontStyle=0;container=1;pointerEvents=0;collapsible=0;recursiveResize=0;shape=mxgraph.aws4.group;grIcon=mxgraph.aws4.group_security_group;grStroke=0;strokeColor=#7AA116;fillColor=#F2F6E8;verticalAlign=top;align=left;spacingLeft=30;fontColor=#248814;dashed=0;" vertex="1" parent="gqfAAeyBDF066Aqk3Bnu-156">
          <mxGeometry x="20" y="170" width="130" height="190" as="geometry" />
        </mxCell>
        <mxCell id="gqfAAeyBDF066Aqk3Bnu-160" value="" style="shape=image;image=https://img.icons8.com/ios-filled/100/monitor--v1.png;" vertex="1" parent="gqfAAeyBDF066Aqk3Bnu-157">
          <mxGeometry x="35" y="82" width="60" height="60" as="geometry" />
        </mxCell>
        <mxCell id="gqfAAeyBDF066Aqk3Bnu-161" value="SmartTax Agent UI&lt;div&gt;&lt;br/&gt;&lt;/div&gt;" style="text;html=1;strokeColor=none;fillColor=none;align=center;verticalAlign=top;" vertex="1" parent="gqfAAeyBDF066Aqk3Bnu-157">
          <mxGeometry x="15" y="138" width="100" height="30" as="geometry" />
        </mxCell>
        <mxCell id="gqfAAeyBDF066Aqk3Bnu-158" value="Private subnet" style="points=[[0,0],[0.25,0],[0.5,0],[0.75,0],[1,0],[1,0.25],[1,0.5],[1,0.75],[1,1],[0.75,1],[0.5,1],[0.25,1],[0,1],[0,0.75],[0,0.5],[0,0.25]];outlineConnect=0;gradientColor=none;html=1;whiteSpace=wrap;fontSize=12;fontStyle=0;container=1;pointerEvents=0;collapsible=0;recursiveResize=0;shape=mxgraph.aws4.group;grIcon=mxgraph.aws4.group_security_group;grStroke=0;strokeColor=#00A4A6;fillColor=#E6F6F7;verticalAlign=top;align=left;spacingLeft=30;fontColor=#147EBA;dashed=0;" vertex="1" parent="gqfAAeyBDF066Aqk3Bnu-156">
          <mxGeometry x="160" y="27" width="620" height="503" as="geometry" />
        </mxCell>
        <mxCell id="gqfAAeyBDF066Aqk3Bnu-202" value="" style="rounded=0;whiteSpace=wrap;html=1;fillColor=#f5f5f5;fontColor=#333333;strokeColor=#666666;" vertex="1" parent="gqfAAeyBDF066Aqk3Bnu-158">
          <mxGeometry x="495" y="28" width="120" height="462" as="geometry" />
        </mxCell>
        <mxCell id="gqfAAeyBDF066Aqk3Bnu-197" value="" style="edgeStyle=orthogonalEdgeStyle;rounded=0;orthogonalLoop=1;jettySize=auto;html=1;" edge="1" parent="gqfAAeyBDF066Aqk3Bnu-158" source="gqfAAeyBDF066Aqk3Bnu-177" target="gqfAAeyBDF066Aqk3Bnu-196">
          <mxGeometry relative="1" as="geometry" />
        </mxCell>
        <mxCell id="gqfAAeyBDF066Aqk3Bnu-198" value="powered by" style="edgeLabel;html=1;align=center;verticalAlign=middle;resizable=0;points=[];" vertex="1" connectable="0" parent="gqfAAeyBDF066Aqk3Bnu-197">
          <mxGeometry x="-0.2146" y="-3" relative="1" as="geometry">
            <mxPoint as="offset" />
          </mxGeometry>
        </mxCell>
        <mxCell id="gqfAAeyBDF066Aqk3Bnu-203" value="" style="edgeStyle=orthogonalEdgeStyle;rounded=0;orthogonalLoop=1;jettySize=auto;html=1;entryX=0;entryY=0.5;entryDx=0;entryDy=0;" edge="1" parent="gqfAAeyBDF066Aqk3Bnu-158" source="gqfAAeyBDF066Aqk3Bnu-177" target="gqfAAeyBDF066Aqk3Bnu-202">
          <mxGeometry relative="1" as="geometry" />
        </mxCell>
        <mxCell id="gqfAAeyBDF066Aqk3Bnu-207" value="API" style="edgeLabel;html=1;align=center;verticalAlign=middle;resizable=0;points=[];" vertex="1" connectable="0" parent="gqfAAeyBDF066Aqk3Bnu-203">
          <mxGeometry x="-0.1078" y="2" relative="1" as="geometry">
            <mxPoint as="offset" />
          </mxGeometry>
        </mxCell>
        <mxCell id="gqfAAeyBDF066Aqk3Bnu-177" value="" style="sketch=0;points=[[0,0,0],[0.25,0,0],[0.5,0,0],[0.75,0,0],[1,0,0],[0,1,0],[0.25,1,0],[0.5,1,0],[0.75,1,0],[1,1,0],[0,0.25,0],[0,0.5,0],[0,0.75,0],[1,0.25,0],[1,0.5,0],[1,0.75,0]];outlineConnect=0;fontColor=#232F3E;fillColor=#01A88D;strokeColor=#ffffff;dashed=0;verticalLabelPosition=bottom;verticalAlign=top;align=center;html=1;fontSize=12;fontStyle=0;aspect=fixed;shape=mxgraph.aws4.resourceIcon;resIcon=mxgraph.aws4.bedrock;" vertex="1" parent="gqfAAeyBDF066Aqk3Bnu-158">
          <mxGeometry x="298" y="85.5" width="69.5" height="69.5" as="geometry" />
        </mxCell>
        <mxCell id="gqfAAeyBDF066Aqk3Bnu-193" value="" style="edgeStyle=orthogonalEdgeStyle;rounded=0;orthogonalLoop=1;jettySize=auto;html=1;entryX=0;entryY=0.5;entryDx=0;entryDy=0;entryPerimeter=0;" edge="1" parent="gqfAAeyBDF066Aqk3Bnu-158" source="gqfAAeyBDF066Aqk3Bnu-178" target="gqfAAeyBDF066Aqk3Bnu-177">
          <mxGeometry relative="1" as="geometry" />
        </mxCell>
        <mxCell id="gqfAAeyBDF066Aqk3Bnu-178" value="" style="outlineConnect=0;dashed=0;verticalLabelPosition=bottom;verticalAlign=top;align=center;html=1;shape=mxgraph.aws3.lambda_function;fillColor=#F58534;gradientColor=none;" vertex="1" parent="gqfAAeyBDF066Aqk3Bnu-158">
          <mxGeometry x="156" y="84.5" width="69" height="72" as="geometry" />
        </mxCell>
        <mxCell id="gqfAAeyBDF066Aqk3Bnu-179" value="" style="sketch=0;points=[[0,0,0],[0.25,0,0],[0.5,0,0],[0.75,0,0],[1,0,0],[0,1,0],[0.25,1,0],[0.5,1,0],[0.75,1,0],[1,1,0],[0,0.25,0],[0,0.5,0],[0,0.75,0],[1,0.25,0],[1,0.5,0],[1,0.75,0]];outlineConnect=0;fontColor=#232F3E;fillColor=#E7157B;strokeColor=#ffffff;dashed=0;verticalLabelPosition=bottom;verticalAlign=top;align=center;html=1;fontSize=12;fontStyle=0;aspect=fixed;shape=mxgraph.aws4.resourceIcon;resIcon=mxgraph.aws4.api_gateway;" vertex="1" parent="gqfAAeyBDF066Aqk3Bnu-158">
          <mxGeometry x="30" y="226" width="57" height="57" as="geometry" />
        </mxCell>
        <mxCell id="gqfAAeyBDF066Aqk3Bnu-181" value="&lt;div&gt;API Gateway&lt;/div&gt;" style="text;html=1;strokeColor=none;fillColor=none;align=center;verticalAlign=top;" vertex="1" parent="gqfAAeyBDF066Aqk3Bnu-158">
          <mxGeometry x="8.5" y="283" width="100" height="30" as="geometry" />
        </mxCell>
        <mxCell id="gqfAAeyBDF066Aqk3Bnu-182" value="&lt;div&gt;Individual User &lt;br&gt;Bedrock API&lt;/div&gt;" style="text;html=1;strokeColor=none;fillColor=none;align=center;verticalAlign=top;" vertex="1" parent="gqfAAeyBDF066Aqk3Bnu-158">
          <mxGeometry x="140.5" y="43" width="100" height="30" as="geometry" />
        </mxCell>
        <mxCell id="gqfAAeyBDF066Aqk3Bnu-195" value="" style="edgeStyle=orthogonalEdgeStyle;rounded=0;orthogonalLoop=1;jettySize=auto;html=1;" edge="1" parent="gqfAAeyBDF066Aqk3Bnu-158" source="gqfAAeyBDF066Aqk3Bnu-183" target="gqfAAeyBDF066Aqk3Bnu-185">
          <mxGeometry relative="1" as="geometry" />
        </mxCell>
        <mxCell id="gqfAAeyBDF066Aqk3Bnu-183" value="" style="outlineConnect=0;dashed=0;verticalLabelPosition=bottom;verticalAlign=top;align=center;html=1;shape=mxgraph.aws3.lambda_function;fillColor=#F58534;gradientColor=none;" vertex="1" parent="gqfAAeyBDF066Aqk3Bnu-158">
          <mxGeometry x="156" y="356" width="69" height="72" as="geometry" />
        </mxCell>
        <mxCell id="gqfAAeyBDF066Aqk3Bnu-184" value="&lt;div&gt;Tax Specialist &lt;br&gt;Bedrock API&lt;/div&gt;" style="text;html=1;strokeColor=none;fillColor=none;align=center;verticalAlign=top;" vertex="1" parent="gqfAAeyBDF066Aqk3Bnu-158">
          <mxGeometry x="146" y="428" width="100" height="30" as="geometry" />
        </mxCell>
        <mxCell id="gqfAAeyBDF066Aqk3Bnu-199" value="" style="edgeStyle=orthogonalEdgeStyle;rounded=0;orthogonalLoop=1;jettySize=auto;html=1;" edge="1" parent="gqfAAeyBDF066Aqk3Bnu-158" source="gqfAAeyBDF066Aqk3Bnu-185" target="gqfAAeyBDF066Aqk3Bnu-196">
          <mxGeometry relative="1" as="geometry" />
        </mxCell>
        <mxCell id="gqfAAeyBDF066Aqk3Bnu-201" value="powered by" style="edgeLabel;html=1;align=center;verticalAlign=middle;resizable=0;points=[];" vertex="1" connectable="0" parent="gqfAAeyBDF066Aqk3Bnu-199">
          <mxGeometry x="-0.2879" relative="1" as="geometry">
            <mxPoint as="offset" />
          </mxGeometry>
        </mxCell>
        <mxCell id="gqfAAeyBDF066Aqk3Bnu-204" value="" style="edgeStyle=orthogonalEdgeStyle;rounded=0;orthogonalLoop=1;jettySize=auto;html=1;entryX=0;entryY=0.5;entryDx=0;entryDy=0;" edge="1" parent="gqfAAeyBDF066Aqk3Bnu-158" source="gqfAAeyBDF066Aqk3Bnu-185" target="gqfAAeyBDF066Aqk3Bnu-202">
          <mxGeometry relative="1" as="geometry" />
        </mxCell>
        <mxCell id="gqfAAeyBDF066Aqk3Bnu-208" value="API" style="edgeLabel;html=1;align=center;verticalAlign=middle;resizable=0;points=[];" vertex="1" connectable="0" parent="gqfAAeyBDF066Aqk3Bnu-204">
          <mxGeometry x="-0.0415" y="-1" relative="1" as="geometry">
            <mxPoint as="offset" />
          </mxGeometry>
        </mxCell>
        <mxCell id="gqfAAeyBDF066Aqk3Bnu-185" value="" style="sketch=0;points=[[0,0,0],[0.25,0,0],[0.5,0,0],[0.75,0,0],[1,0,0],[0,1,0],[0.25,1,0],[0.5,1,0],[0.75,1,0],[1,1,0],[0,0.25,0],[0,0.5,0],[0,0.75,0],[1,0.25,0],[1,0.5,0],[1,0.75,0]];outlineConnect=0;fontColor=#232F3E;fillColor=#01A88D;strokeColor=#ffffff;dashed=0;verticalLabelPosition=bottom;verticalAlign=top;align=center;html=1;fontSize=12;fontStyle=0;aspect=fixed;shape=mxgraph.aws4.resourceIcon;resIcon=mxgraph.aws4.bedrock;" vertex="1" parent="gqfAAeyBDF066Aqk3Bnu-158">
          <mxGeometry x="298" y="357.5" width="69.5" height="69.5" as="geometry" />
        </mxCell>
        <mxCell id="gqfAAeyBDF066Aqk3Bnu-186" value="&lt;div&gt;Individual User &lt;br&gt;Bedrock Agent&lt;/div&gt;" style="text;html=1;strokeColor=none;fillColor=none;align=center;verticalAlign=top;" vertex="1" parent="gqfAAeyBDF066Aqk3Bnu-158">
          <mxGeometry x="282.75" y="43" width="100" height="30" as="geometry" />
        </mxCell>
        <mxCell id="gqfAAeyBDF066Aqk3Bnu-187" value="&lt;div&gt;Tax Specialist&lt;br&gt;Bedrock Agent&lt;/div&gt;" style="text;html=1;strokeColor=none;fillColor=none;align=center;verticalAlign=top;" vertex="1" parent="gqfAAeyBDF066Aqk3Bnu-158">
          <mxGeometry x="283.75" y="428" width="100" height="30" as="geometry" />
        </mxCell>
        <mxCell id="gqfAAeyBDF066Aqk3Bnu-188" value="" style="outlineConnect=0;dashed=0;verticalLabelPosition=bottom;verticalAlign=top;align=center;html=1;shape=mxgraph.aws3.lambda_function;fillColor=#F58534;gradientColor=none;" vertex="1" parent="gqfAAeyBDF066Aqk3Bnu-158">
          <mxGeometry x="517" y="160" width="69" height="72" as="geometry" />
        </mxCell>
        <mxCell id="gqfAAeyBDF066Aqk3Bnu-189" value="" style="outlineConnect=0;dashed=0;verticalLabelPosition=bottom;verticalAlign=top;align=center;html=1;shape=mxgraph.aws3.lambda_function;fillColor=#F58534;gradientColor=none;" vertex="1" parent="gqfAAeyBDF066Aqk3Bnu-158">
          <mxGeometry x="518" y="289" width="69" height="72" as="geometry" />
        </mxCell>
        <mxCell id="gqfAAeyBDF066Aqk3Bnu-190" value="&lt;div&gt;SmartTax Workflow &lt;br&gt;API&lt;/div&gt;" style="text;html=1;strokeColor=none;fillColor=none;align=center;verticalAlign=top;" vertex="1" parent="gqfAAeyBDF066Aqk3Bnu-158">
          <mxGeometry x="501.5" y="118" width="100" height="30" as="geometry" />
        </mxCell>
        <mxCell id="gqfAAeyBDF066Aqk3Bnu-191" value="&lt;div&gt;PDF Generator &lt;br&gt;API&lt;/div&gt;" style="text;html=1;strokeColor=none;fillColor=none;align=center;verticalAlign=top;" vertex="1" parent="gqfAAeyBDF066Aqk3Bnu-158">
          <mxGeometry x="502.5" y="361" width="100" height="30" as="geometry" />
        </mxCell>
        <mxCell id="gqfAAeyBDF066Aqk3Bnu-192" style="edgeStyle=orthogonalEdgeStyle;rounded=0;orthogonalLoop=1;jettySize=auto;html=1;entryX=0;entryY=0.5;entryDx=0;entryDy=0;entryPerimeter=0;" edge="1" parent="gqfAAeyBDF066Aqk3Bnu-158" source="gqfAAeyBDF066Aqk3Bnu-179" target="gqfAAeyBDF066Aqk3Bnu-178">
          <mxGeometry relative="1" as="geometry" />
        </mxCell>
        <mxCell id="gqfAAeyBDF066Aqk3Bnu-194" style="edgeStyle=orthogonalEdgeStyle;rounded=0;orthogonalLoop=1;jettySize=auto;html=1;entryX=0;entryY=0.5;entryDx=0;entryDy=0;entryPerimeter=0;" edge="1" parent="gqfAAeyBDF066Aqk3Bnu-158" source="gqfAAeyBDF066Aqk3Bnu-179" target="gqfAAeyBDF066Aqk3Bnu-183">
          <mxGeometry relative="1" as="geometry" />
        </mxCell>
        <mxCell id="gqfAAeyBDF066Aqk3Bnu-196" value="" style="sketch=0;outlineConnect=0;fontColor=#232F3E;gradientColor=none;fillColor=#01A88D;strokeColor=none;dashed=0;verticalLabelPosition=bottom;verticalAlign=top;align=center;html=1;fontSize=12;fontStyle=0;aspect=fixed;pointerEvents=1;shape=mxgraph.aws4.sagemaker_model;" vertex="1" parent="gqfAAeyBDF066Aqk3Bnu-158">
          <mxGeometry x="293.75" y="220" width="78" height="78" as="geometry" />
        </mxCell>
        <mxCell id="gqfAAeyBDF066Aqk3Bnu-200" value="AWS Titan or Mistral or Llama" style="text;html=1;align=center;verticalAlign=middle;whiteSpace=wrap;rounded=0;" vertex="1" parent="gqfAAeyBDF066Aqk3Bnu-158">
          <mxGeometry x="238" y="241" width="60" height="30" as="geometry" />
        </mxCell>
        <mxCell id="gqfAAeyBDF066Aqk3Bnu-205" value="&lt;div&gt;&lt;b&gt;Service Layer&lt;/b&gt;&lt;/div&gt;" style="text;html=1;strokeColor=none;fillColor=none;align=center;verticalAlign=top;" vertex="1" parent="gqfAAeyBDF066Aqk3Bnu-158">
          <mxGeometry x="502.5" y="28" width="100" height="30" as="geometry" />
        </mxCell>
        <mxCell id="gqfAAeyBDF066Aqk3Bnu-171" value="S3 &lt;br&gt;(knowledge base)" style="sketch=0;points=[[0,0,0],[0.25,0,0],[0.5,0,0],[0.75,0,0],[1,0,0],[0,1,0],[0.25,1,0],[0.5,1,0],[0.75,1,0],[1,1,0],[0,0.25,0],[0,0.5,0],[0,0.75,0],[1,0.25,0],[1,0.5,0],[1,0.75,0]];outlineConnect=0;fontColor=#232F3E;fillColor=#7AA116;strokeColor=#ffffff;dashed=0;verticalLabelPosition=bottom;verticalAlign=top;align=center;html=1;fontSize=12;fontStyle=0;aspect=fixed;shape=mxgraph.aws4.resourceIcon;resIcon=mxgraph.aws4.s3;" vertex="1" parent="gqfAAeyBDF066Aqk3Bnu-156">
          <mxGeometry x="46" y="390" width="78" height="78" as="geometry" />
        </mxCell>
        <mxCell id="gqfAAeyBDF066Aqk3Bnu-180" value="API" style="edgeStyle=orthogonalEdgeStyle;rounded=0;orthogonalLoop=1;jettySize=auto;html=1;" edge="1" parent="gqfAAeyBDF066Aqk3Bnu-156" source="gqfAAeyBDF066Aqk3Bnu-160" target="gqfAAeyBDF066Aqk3Bnu-179">
          <mxGeometry relative="1" as="geometry" />
        </mxCell>
        <mxCell id="gqfAAeyBDF066Aqk3Bnu-175" value="" style="edgeStyle=orthogonalEdgeStyle;rounded=0;orthogonalLoop=1;jettySize=auto;html=1;" edge="1" parent="1" source="gqfAAeyBDF066Aqk3Bnu-162" target="gqfAAeyBDF066Aqk3Bnu-172">
          <mxGeometry relative="1" as="geometry" />
        </mxCell>
        <mxCell id="gqfAAeyBDF066Aqk3Bnu-162" value="" style="fillColor=#28A8E0;verticalLabelPosition=bottom;sketch=0;html=1;strokeColor=#ffffff;verticalAlign=top;align=center;points=[[0.145,0.145,0],[0.5,0,0],[0.855,0.145,0],[1,0.5,0],[0.855,0.855,0],[0.5,1,0],[0.145,0.855,0],[0,0.5,0]];pointerEvents=1;shape=mxgraph.cisco_safe.compositeIcon;bgIcon=ellipse;resIcon=mxgraph.cisco_safe.capability.user;" vertex="1" parent="1">
          <mxGeometry x="1062" y="246" width="43" height="43" as="geometry" />
        </mxCell>
        <mxCell id="gqfAAeyBDF066Aqk3Bnu-163" value="" style="shape=image;image=https://img.icons8.com/ios-glyphs/30/lock--v1.png;" vertex="1" parent="1">
          <mxGeometry x="1085" y="317" width="20" height="20" as="geometry" />
        </mxCell>
        <mxCell id="gqfAAeyBDF066Aqk3Bnu-165" value="Individual User" style="text;html=1;strokeColor=none;fillColor=none;align=center;verticalAlign=top;" vertex="1" parent="1">
          <mxGeometry x="1032" y="216" width="100" height="30" as="geometry" />
        </mxCell>
        <mxCell id="gqfAAeyBDF066Aqk3Bnu-174" value="" style="edgeStyle=orthogonalEdgeStyle;rounded=0;orthogonalLoop=1;jettySize=auto;html=1;" edge="1" parent="1" source="gqfAAeyBDF066Aqk3Bnu-166" target="gqfAAeyBDF066Aqk3Bnu-172">
          <mxGeometry relative="1" as="geometry" />
        </mxCell>
        <mxCell id="gqfAAeyBDF066Aqk3Bnu-166" value="" style="verticalLabelPosition=bottom;sketch=0;html=1;fillColor=#A153A0;strokeColor=#ffffff;verticalAlign=top;align=center;points=[[0,0.5,0],[0.125,0.25,0],[0.25,0,0],[0.5,0,0],[0.75,0,0],[0.875,0.25,0],[1,0.5,0],[0.875,0.75,0],[0.75,1,0],[0.5,1,0],[0.125,0.75,0]];pointerEvents=1;shape=mxgraph.cisco_safe.compositeIcon;bgIcon=ellipse;resIcon=mxgraph.cisco_safe.design.user;" vertex="1" parent="1">
          <mxGeometry x="1057.5" y="492" width="50" height="50" as="geometry" />
        </mxCell>
        <mxCell id="gqfAAeyBDF066Aqk3Bnu-167" value="Tax Specialist" style="text;html=1;strokeColor=none;fillColor=none;align=center;verticalAlign=top;" vertex="1" parent="1">
          <mxGeometry x="1030" y="542" width="100" height="30" as="geometry" />
        </mxCell>
        <mxCell id="gqfAAeyBDF066Aqk3Bnu-176" value="" style="edgeStyle=orthogonalEdgeStyle;rounded=0;orthogonalLoop=1;jettySize=auto;html=1;entryX=0;entryY=0.5;entryDx=0;entryDy=0;" edge="1" parent="1" source="gqfAAeyBDF066Aqk3Bnu-172" target="gqfAAeyBDF066Aqk3Bnu-160">
          <mxGeometry relative="1" as="geometry" />
        </mxCell>
        <mxCell id="gqfAAeyBDF066Aqk3Bnu-172" value="" style="image;aspect=fixed;html=1;points=[];align=center;fontSize=12;image=img/lib/azure2/general/Browser.svg;" vertex="1" parent="1">
          <mxGeometry x="1050" y="367" width="65" height="52" as="geometry" />
        </mxCell>
        <mxCell id="gqfAAeyBDF066Aqk3Bnu-173" value="" style="shape=image;image=https://img.icons8.com/ios-glyphs/30/lock--v1.png;" vertex="1" parent="1">
          <mxGeometry x="1085" y="448" width="20" height="20" as="geometry" />
        </mxCell>
        <mxCell id="gqfAAeyBDF066Aqk3Bnu-211" value="Browser" style="text;html=1;align=center;verticalAlign=middle;whiteSpace=wrap;rounded=0;" vertex="1" parent="1">
          <mxGeometry x="1054" y="386" width="60" height="30" as="geometry" />
        </mxCell>
      </root>
    </mxGraphModel>
  </diagram>
</mxfile>
